<?xml version="1.0" encoding="UTF-8" standalone="no"?>
<svg
   xmlns:dc="http://purl.org/dc/elements/1.1/"
   xmlns:cc="http://creativecommons.org/ns#"
   xmlns:rdf="http://www.w3.org/1999/02/22-rdf-syntax-ns#"
   xmlns:svg="http://www.w3.org/2000/svg"
   xmlns="http://www.w3.org/2000/svg"
   xml:space="preserve"
   enable-background="new 0 0 500 500"
   viewBox="0 0 500 500"
   height="500px"
   width="500px"
   y="0px"
   x="0px"
   id="Layer_1"
   version="1.1"><metadata
     id="metadata13"><rdf:RDF><cc:Work
         rdf:about=""><dc:format>image/svg+xml</dc:format><dc:type
           rdf:resource="http://purl.org/dc/dcmitype/StillImage" /><dc:title></dc:title></cc:Work></rdf:RDF></metadata><defs
     id="defs11" /><g
     style="fill:#ffffff"
     id="g3"><g
       style="fill:#ffffff"
       id="g5"><path
         style="clip-rule:evenodd;fill-rule:evenodd;fill:#ffffff"
         id="path7"
         d="m 449.105,124.064 -99.801,-0.014 -49.901,-124.737 -99.801,0 L 149.708,124.057 49.886,124.048 0,498.319 l 99.785,-0.009 49.916,-124.755 49.901,124.746 99.801,0 49.884,-124.758 49.918,124.778 100.93158,0.0339 z M 481.494,454.525 399.195,248.79 440.727,145.099 Z M 343.223,138.74 305.226,234.4 255.584,109.32 293.582,14.266 Z M 299.422,248.804 249.503,373.589 199.578,248.804 249.52,124.054 Z M 207.365,10.385 282.892,10.403 193.78,234.296 155.748,139.069 Z M 58.209,145.112 99.806,248.816 16.649,456.755 Z m 34.09,342.101 -75.787,0.017 89.093,-223.461 38.552,95.071 z m 114.511,0.016 -140.467,-352.093 75.7,0.018 140.952,352.076 -76.185,0 z m 86.772,-3.845 -37.998,-94.846 101.482,-253.384 75.423,-0.018 z m 61.786,-124.516 38.008,-95.616 89.424,223.974 -76.161,10e-4 z" /></g></g></svg>
