<?xml version="1.0" standalone="no"?>
<!DOCTYPE svg PUBLIC "-//W3C//DTD SVG 20010904//EN"
 "http://www.w3.org/TR/2001/REC-SVG-20010904/DTD/svg10.dtd">
<svg version="1.0" xmlns="http://www.w3.org/2000/svg"
 width="16.000000pt" height="16.000000pt" viewBox="0 0 16.000000 16.000000"
 preserveAspectRatio="xMidYMid meet">
<metadata>
Created by potrace 1.11, written by Peter Selinger 2001-2013
</metadata>
<g transform="translate(0.000000,16.000000) scale(0.002667,-0.002667)"
fill="#000000" stroke="none">
<path d="M1135 5980 c-227 -59 -532 -238 -900 -529 -66 -52 -139 -114 -161
-137 -80 -82 -74 125 -74 -2319 0 -1847 2 -2189 14 -2229 19 -63 96 -156 301
-361 222 -223 349 -324 481 -380 92 -40 229 -21 379 50 58 28 269 161 296 187
8 7 41 33 73 58 177 135 506 456 556 542 105 185 61 486 -84 560 -127 65 -249
-15 -301 -195 -32 -112 -25 -230 20 -319 l24 -48 -62 -43 c-74 -53 -116 -69
-224 -91 -116 -24 -178 -19 -261 19 -80 38 -140 88 -176 149 -38 65 -79 214
-101 371 -4 22 -9 51 -13 65 -3 14 -8 902 -9 1974 l-3 1948 37 -7 c83 -15 163
-75 205 -152 26 -47 69 -193 84 -283 4 -25 8 -47 9 -50 1 -3 5 -34 9 -70 4
-36 10 -78 13 -95 2 -16 5 -393 5 -836 0 -592 -3 -821 -11 -860 -7 -30 -41
-139 -76 -244 -83 -245 -96 -308 -95 -465 1 -69 2 -138 4 -155 2 -16 6 -68 11
-115 8 -97 9 -99 25 -160 22 -85 87 -156 129 -143 69 22 102 73 109 173 6 96
-18 171 -75 228 l-45 44 6 63 c12 132 77 237 176 283 25 12 110 40 190 62 174
50 268 94 344 162 91 80 179 221 206 325 7 29 11 403 11 1167 l0 1124 37 -10
c87 -24 166 -82 207 -152 39 -69 83 -247 111 -461 4 -27 7 -896 8 -1930 2
-1742 3 -1884 19 -1930 9 -28 27 -62 40 -75 12 -14 51 -59 86 -100 113 -131
343 -353 447 -431 56 -42 132 -91 170 -110 93 -45 204 -50 309 -13 135 46 273
125 427 245 134 105 115 102 195 25 114 -109 249 -212 340 -258 82 -41 89 -43
172 -42 158 1 368 92 671 290 158 103 454 333 518 402 65 70 60 -88 61 2308 1
2331 3 2235 -46 2298 -117 148 -426 459 -545 547 -78 57 -124 85 -222 130 -42
20 -170 17 -236 -5 -238 -80 -535 -299 -885 -651 -192 -194 -228 -267 -221
-449 7 -188 91 -313 215 -321 188 -12 315 319 206 537 l-23 46 39 31 c110 89
329 143 446 110 108 -30 212 -114 254 -206 19 -42 62 -197 72 -258 9 -58 17
-100 24 -135 4 -19 9 -912 10 -1984 l3 -1948 -37 7 c-83 15 -163 75 -205 152
-24 44 -68 191 -82 273 -3 19 -8 46 -11 59 -2 14 -7 47 -10 75 -3 28 -8 69
-11 91 -8 56 -7 1632 1 1675 3 19 13 60 22 90 9 30 18 60 19 65 1 6 25 75 53
155 78 226 81 247 76 465 -4 180 -6 213 -19 310 -16 123 -74 215 -135 215 -46
0 -68 -15 -93 -63 -19 -35 -23 -58 -23 -132 0 -105 23 -166 82 -214 35 -29 35
-29 29 -94 -8 -93 -41 -172 -91 -223 -60 -60 -81 -69 -365 -151 -184 -53 -313
-159 -408 -334 -66 -122 -63 -49 -63 -1292 l0 -1128 -22 6 c-97 29 -181 89
-222 159 -21 37 -49 117 -60 175 -2 13 -6 30 -9 39 -8 26 -27 139 -42 247 -4
28 -8 898 -9 1935 -2 2122 6 1925 -82 2029 -83 98 -115 133 -253 271 -266 267
-440 380 -587 380 -148 0 -372 -108 -593 -285 -104 -83 -105 -83 -133 -54
-102 111 -291 257 -396 307 -91 44 -169 50 -276 22z"/>
</g>
</svg>
