<?xml version="1.0" encoding="UTF-8" standalone="no"?>
<!-- Created with Inkscape (http://www.inkscape.org/) -->

<svg
   xmlns:dc="http://purl.org/dc/elements/1.1/"
   xmlns:cc="http://creativecommons.org/ns#"
   xmlns:rdf="http://www.w3.org/1999/02/22-rdf-syntax-ns#"
   xmlns:svg="http://www.w3.org/2000/svg"
   xmlns="http://www.w3.org/2000/svg"
   xmlns:sodipodi="http://sodipodi.sourceforge.net/DTD/sodipodi-0.dtd"
   xmlns:inkscape="http://www.inkscape.org/namespaces/inkscape"
   width="282.22223mm"
   height="282.22223mm"
   viewBox="0 0 1000 1000"
   id="svg4434"
   version="1.1"
   inkscape:version="0.91 r13725"
   sodipodi:docname="MA-ambigram-circle.svg">
  <defs
     id="defs4436" />
  <sodipodi:namedview
     id="base"
     pagecolor="#ffffff"
     bordercolor="#666666"
     borderopacity="1.0"
     inkscape:pageopacity="0.0"
     inkscape:pageshadow="2"
     inkscape:zoom="0.25"
     inkscape:cx="383.4344"
     inkscape:cy="865.99946"
     inkscape:document-units="px"
     inkscape:current-layer="layer1"
     showgrid="false"
     fit-margin-top="0"
     fit-margin-left="0"
     fit-margin-right="0"
     fit-margin-bottom="0"
     inkscape:window-width="1366"
     inkscape:window-height="744"
     inkscape:window-x="0"
     inkscape:window-y="24"
     inkscape:window-maximized="1" />
  <metadata
     id="metadata4439">
    <rdf:RDF>
      <cc:Work
         rdf:about="">
        <dc:format>image/svg+xml</dc:format>
        <dc:type
           rdf:resource="http://purl.org/dc/dcmitype/StillImage" />
        <dc:title />
      </cc:Work>
    </rdf:RDF>
  </metadata>
  <g
     inkscape:label="Layer 1"
     inkscape:groupmode="layer"
     id="layer1"
     transform="translate(10.899902,-95.504517)">
    <circle
       style="display:inline;opacity:1;fill:#333333;fill-opacity:1;stroke:none;stroke-width:1;stroke-linecap:round;stroke-linejoin:bevel;stroke-miterlimit:4;stroke-dasharray:none;stroke-dashoffset:0;stroke-opacity:1"
       id="path4198"
       cx="489.1001"
       cy="595.50452"
       r="500"
       inkscape:export-filename="/home/ramidem/Dropbox/Projects/Inkscape/Logo/MA/MA-ambigram-circle.png"
       inkscape:export-xdpi="90"
       inkscape:export-ydpi="90" />
    <path
       style="display:inline;opacity:1;fill:#e6e6e6;fill-opacity:1;stroke:none;stroke-width:1.11110961;stroke-linecap:butt;stroke-linejoin:round;stroke-miterlimit:4;stroke-dasharray:none;stroke-dashoffset:0;stroke-opacity:1"
       d="m 439.85762,433.00254 c 0,0 -1.599,-32.51632 -10.29557,-57.68192 -6.19677,-17.93151 -23.27877,-21.92553 -29.0979,-23.5691 l 0,0.27933 0,238.52726 c 0,6.78211 -1.18506,11.0049 -3.58529,16.57625 -29.99577,69.62114 -94.89794,24.17142 -97.3908,88.15656 l 0,3.08932 c 3.53123,1.17624 7.48745,4.91477 9.92366,10.32772 4.87207,10.82562 4.0352,25.46725 -1.8694,32.70279 -5.90493,7.23554 -14.64137,4.3251 -19.51354,-6.50078 -1.21811,-2.70634 -2.29711,-6.72827 -2.81136,-9.73648 l -0.29619,-1.60731 c 0,0 -4.3511,-35.53851 -2.59967,-53.03889 2.69013,-26.88005 19.65438,-53.62283 19.65438,-75.02274 l 0,-162.50201 0,-0.82593 c 0,0 -1.41149,-32.62324 -10.29547,-57.61002 -8.11178,-22.81507 -29.0979,-22.81507 -29.0979,-22.81507 l 0,406.25501 0,0.754 c 0,0 1.599,32.51637 10.29546,57.68177 6.19689,17.93167 23.19179,24.47509 29.0108,26.1188 8.56961,2.42035 19.06429,0.13781 30.25859,-2.44192 12.08447,-2.78511 22.60515,-13.48229 22.60515,-13.48229 -8.71465,-10.32745 -9.71024,-32.84787 -1.42663,-48.5074 10.34875,-19.56396 29.72894,-17.99017 38.55875,-2.53085 8.83014,15.45959 9.39488,42.5503 -5.38243,58.76883 0,0 -77.95298,86.13692 -123.91188,86.13692 -32.82782,0 -94.11058,-76.20779 -94.11058,-76.20779 -2.78752,-4.54063 -4.3797,-10.40857 -4.3797,-17.35707 l 0,-460.4549 c 0,-6.77373 1.20207,-12.52857 3.77618,-16.84927 1.28732,-2.16032 3.85048,-4.84682 5.70645,-6.49592 0,0 82.4265,-72.63479 128.3854,-72.63479 16.41413,0 41.88319,21.41344 61.21776,40.87779 25.25044,-21.53752 53.67961,-40.1229 76.65894,-40.1229 32.82782,0 94.11025,76.2075 94.11025,76.2075 2.78774,4.54071 4.38014,10.40884 4.37234,17.48437 l 0,393.16537 c 0,0 1.61416,32.40585 10.31095,57.57177 6.19655,17.93142 23.27855,21.92553 29.09768,23.56873 l 0,-0.27898 0,-238.52736 c 0,-6.78212 1.18506,-11.00494 3.58529,-16.57626 29.99577,-69.62117 94.89794,-24.17144 97.3908,-88.15662 l 0,-3.08907 c -3.53123,-1.17637 -7.48745,-4.91509 -9.92333,-10.32798 -4.8724,-10.8257 -4.0352,-25.46719 1.86939,-32.70272 5.90461,-7.2355 14.64105,-4.32506 19.51344,6.50061 1.21811,2.70644 2.29689,6.72861 2.81147,9.73665 l 0.29608,1.60718 c 0,0 4.35109,35.53865 2.59945,53.03901 -2.69013,26.88003 -19.65416,53.62281 -19.65416,75.02275 l 0,162.50204 0,0.82577 c 0,0 1.41159,32.62322 10.29546,57.61 8.11157,22.81498 29.0979,22.81498 29.0979,22.81498 l 0,-406.25474 0,-0.75411 c 0,0 -1.599,-32.51631 -10.29567,-57.68184 -6.19656,-17.93156 -23.19147,-24.47506 -29.0108,-26.11863 -8.56939,-2.42038 -19.06429,-0.13858 -30.25826,2.44177 -12.0848,2.7854 -22.60548,13.48219 -22.60548,13.48219 8.71465,10.3278 9.71024,32.84813 1.42663,48.50774 -10.34907,19.56377 -29.72894,17.99007 -38.55875,2.5305 -8.83014,-15.45956 -9.39488,-42.55028 5.38243,-58.76851 0,0 77.9532,-86.137 123.9121,-86.137 32.82793,0 94.11036,76.20749 94.11036,76.20749 2.78752,4.54076 4.3797,10.4089 4.3797,17.35745 l 0,460.4548 c 0,6.77352 -1.20207,12.52862 -3.77618,16.84929 -1.28732,2.16035 -3.85005,4.84692 -5.70635,6.4961 0,0 -82.4266,72.63461 -128.3855,72.63461 -16.41381,0 -41.88287,-21.41359 -61.21754,-40.87743 -25.25099,21.53734 -53.67983,40.12239 -76.65916,40.12239 -32.82782,0 -94.11068,-76.20753 -94.11068,-76.20753 -2.78731,-4.54037 -4.37971,-10.40831 -4.37971,-17.35733 z"
       id="path4196"
       inkscape:connector-curvature="0"
       sodipodi:nodetypes="csccssccsssccasccscccssscsscscccscscscccsccssccsssccasccscccssscsscscccscscscc"
       inkscape:export-filename="/home/ramidem/Dropbox/Projects/Inkscape/Logo/MA/MA-ambigram-circle.png"
       inkscape:export-xdpi="90"
       inkscape:export-ydpi="90" />
  </g>
</svg>
